# xmcd CD database file
#
# Track frame offsets:
#	150
#	28410
#	37476
#	64290
#	82672
#	111672
#	123289
#	135533
#	184229
#	258951
#
# Disc length: 4059 seconds
#
# Revision: 2
# Processed by: cddbd v1.5.1PL0 Copyright (c) Steve Scherf et al.
# Submitted via: CDex 1.50
#
DISCID=940fd90a
DTITLE=Eckhard Tolle - Jetzt! Die Kraft der Gegenwart - Hörbuch CD 3/8
DYEAR=2003
DGENRE=Books and Spoken
TTITLE0=Alle Probleme Sind Einbildungen Des Verstandes
TTITLE1=Ein Quantensprung In Der Entwicklung Des Bewusstseins
TTITLE2=Die Freude Des Seins
TTITLE3=Kapitel 4 Strategien Des Verstandes Um Die Gegenwart Zu Vermeiden
TTITLE4=Gewöhnliche Unbewusstheit Und Tiefe Unbewusstheit
TTITLE5=Wonach Suchen Sie
TTITLE6=Die Alltägliche Unbewusstheit Auflösen
TTITLE7=Freiheit Vom Unglücklich Sein
TTITLE8=Wo Immer Du Bist - Sei Total Gegenwärtig
TTITLE9=Das Innere Ziel Deiner Lebensreise
EXTD=YEAR: 2003
EXTT0=
EXTT1=
EXTT2=
EXTT3=
EXTT4=
EXTT5=
EXTT6=
EXTT7=
EXTT8=
EXTT9=
PLAYORDER=
